<svg width="32" height="32" viewBox="0 0 32 32" fill="none" xmlns="http://www.w3.org/2000/svg">
<path d="M2.37038 22.5186V1.18519C2.37038 0.530628 1.83975 0 1.18519 0C0.530629 0 0 0.530628 0 1.18519V22.5186C0 23.1732 0.530629 23.7038 1.18519 23.7038C1.83975 23.7038 2.37038 23.1732 2.37038 22.5186Z" fill="#F9F871"/>
<path d="M6.16298 17.7778V1.18519C6.16298 0.530628 5.63235 0 4.97781 0C4.32323 0 3.7926 0.530628 3.7926 1.18519V17.7778C3.7926 18.4324 4.32323 18.963 4.97781 18.963C5.63235 18.963 6.16298 18.4324 6.16298 17.7778Z" fill="#F9F871"/>
<path d="M9.95561 13.0371V1.18519C9.95561 0.530628 9.42496 0 8.77041 0C8.11586 0 7.58521 0.530628 7.58521 1.18519V13.0371C7.58521 13.6916 8.11586 14.2223 8.77041 14.2223C9.42496 14.2223 9.95561 13.6916 9.95561 13.0371Z" fill="#F9F871"/>
<path d="M13.7482 8.29631V1.18519C13.7482 0.530628 13.2176 0 12.563 0C11.9085 0 11.3778 0.530628 11.3778 1.18519V8.29631C11.3778 8.95089 11.9085 9.48152 12.563 9.48152C13.2176 9.48152 13.7482 8.95089 13.7482 8.29631Z" fill="#F9F871"/>
<path d="M17.5408 3.55556V1.18519C17.5408 0.530628 17.0102 0 16.3556 0C15.701 0 15.1704 0.530628 15.1704 1.18519V3.55556C15.1704 4.21014 15.701 4.74077 16.3556 4.74077C17.0102 4.74077 17.5408 4.21014 17.5408 3.55556Z" fill="#F9F871"/>
<path d="M29.6298 9.48147V30.8149C29.6298 31.4693 30.1604 32 30.815 32C31.4694 32 32 31.4693 32 30.8149V9.48147C32 8.82689 31.4694 8.29626 30.815 8.29626C30.1604 8.29626 29.6298 8.82689 29.6298 9.48147Z" fill="#F9F871"/>
<path d="M25.8372 14.2222V30.8148C25.8372 31.4693 26.3678 31.9999 27.0223 31.9999C27.6769 31.9999 28.2075 31.4693 28.2075 30.8148V14.2222C28.2075 13.5676 27.6769 13.037 27.0223 13.037C26.3678 13.037 25.8372 13.5676 25.8372 14.2222Z" fill="#F9F871"/>
<path d="M22.0446 18.963V30.8149C22.0446 31.4694 22.5752 32 23.2298 32C23.8843 32 24.415 31.4694 24.415 30.8149V18.963C24.415 18.3085 23.8843 17.7778 23.2298 17.7778C22.5752 17.7778 22.0446 18.3085 22.0446 18.963Z" fill="#F9F871"/>
<path d="M18.252 23.7038V30.8149C18.252 31.4693 18.7826 32 19.4372 32C20.0917 32 20.6224 31.4693 20.6224 30.8149V23.7038C20.6224 23.0492 20.0917 22.5186 19.4372 22.5186C18.7826 22.5186 18.252 23.0492 18.252 23.7038Z" fill="#F9F871"/>
<path d="M14.4594 28.4445V30.8149C14.4594 31.4693 14.99 31.9999 15.6445 31.9999C16.2991 31.9999 16.8297 31.4693 16.8297 30.8149V28.4445C16.8297 27.7899 16.2991 27.2593 15.6445 27.2593C14.99 27.2593 14.4594 27.7899 14.4594 28.4445Z" fill="#F9F871"/>
<path d="M12.3327 24.1928L9.85271 23.4748L9.60533 23.7222L11.2044 25.3213L10.1725 26.3531L5.93665 22.1173L7.66841 20.3855C8.00229 20.0515 8.34424 19.8263 8.69418 19.7096C9.04819 19.5889 9.3861 19.5728 9.70792 19.6613C10.0257 19.7458 10.3093 19.9128 10.5587 20.1622C10.8403 20.4438 11.0112 20.7756 11.0716 21.1577C11.136 21.5358 11.0595 21.926 10.8423 22.3284L13.4973 23.0282L12.3327 24.1928ZM8.87523 22.9921L9.5148 22.3524C9.70388 22.1635 9.79841 21.9765 9.79841 21.7913C9.80244 21.6022 9.71998 21.4232 9.55102 21.2542C9.3901 21.0935 9.21513 21.015 9.02608 21.019C8.84102 21.019 8.65396 21.1134 8.4649 21.3026L7.8253 21.9421L8.87523 22.9921ZM10.9047 17.1491L15.1406 21.3851L14.1088 22.4169L9.8729 18.1809L10.9047 17.1491ZM16.1418 18.6943L17.964 16.872L18.8088 17.7168L15.8159 20.7097L15.0315 19.9251L14.235 15.5083L12.4248 17.3185L11.58 16.4738L14.5729 13.4809L15.3573 14.2653L16.1418 18.6943ZM21.3715 13.6577L19.7905 15.2386L20.2854 16.2402L19.2052 17.3203L16.502 11.5518L17.6968 10.3571L23.4653 13.0603L22.373 14.1525L21.3715 13.6577ZM20.3094 13.1267L18.2338 12.1009L19.2656 14.1706L20.3094 13.1267ZM24.1669 10.7655L25.5185 9.41393L26.3152 10.2104L23.9318 12.5939L19.6958 8.35799L20.7278 7.32617L24.1669 10.7655Z" fill="#F9F871"/>
<path d="M2.37038 31.9999C3.67952 31.9999 4.74077 30.9387 4.74077 29.6297C4.74077 28.3206 3.67952 27.2593 2.37038 27.2593C1.06125 27.2593 0 28.3206 0 29.6297C0 30.9387 1.06125 31.9999 2.37038 31.9999Z" fill="#F9F871"/>
<path d="M29.6298 4.74077C30.9388 4.74077 32.0001 3.67952 32.0001 2.37038C32.0001 1.06125 30.9388 0 29.6298 0C28.3207 0 27.2594 1.06125 27.2594 2.37038C27.2594 3.67952 28.3207 4.74077 29.6298 4.74077Z" fill="#F9F871"/>
</svg>
